<?xml version="1.0" standalone="no"?><!DOCTYPE svg PUBLIC "-//W3C//DTD SVG 1.1//EN" "http://www.w3.org/Graphics/SVG/1.1/DTD/svg11.dtd"><svg t="1763818037999" class="icon" viewBox="0 0 1024 1024" version="1.1" xmlns="http://www.w3.org/2000/svg" p-id="3368" xmlns:xlink="http://www.w3.org/1999/xlink" width="200" height="200"><path d="M903.872912 0H120.127088A120.127088 120.127088 0 0 0 0 120.127088v783.745824a120.127088 120.127088 0 0 0 120.127088 120.127088h783.745824a120.127088 120.127088 0 0 0 120.127088-120.127088V120.127088A120.127088 120.127088 0 0 0 903.872912 0z m-314.082281 714.923014l-174.768228 174.768228a198.543381 198.543381 0 1 1-280.713645-280.713645l174.768228-174.768228a35.037067 35.037067 0 0 1 50.052953 49.635845l-175.185336 174.768228a128.052138 128.052138 0 1 0 181.024847 181.024847l174.768228-174.768228a35.037067 35.037067 0 1 1 49.635845 49.635845z m-153.495723-175.185336l99.688799-99.688798A35.037067 35.037067 0 0 1 583.95112 489.684725l-99.688798 99.688798a35.037067 35.037067 0 1 1-49.635845-49.635845z m453.396334-125.132383l-174.768228 174.768228a35.037067 35.037067 0 0 1-50.052953-49.635845l174.768228-174.768228a128.052138 128.052138 0 0 0 0-181.024847 128.052138 128.052138 0 0 0-181.024847 0L483.845214 358.712831a35.037067 35.037067 0 1 1-49.635845-49.635845l174.768228-174.768228a198.543381 198.543381 0 0 1 280.713645 280.713645z" fill="#13227a" p-id="3369"></path></svg>